<svg xmlns="http://www.w3.org/2000/svg" viewBox="0 0 522.01 522"><title>logo_black</title><g id="Lager_2" data-name="Lager 2"><g id="Lager_1-2" data-name="Lager 1"><path d="M522,260.83c.44,143.09-118.2,261.59-261.5,261.17S.26,404.85,0,262.25C-.26,118.06,116.84.06,260.28,0,404.41-.06,521.56,116.69,522,260.83ZM201.94,182.41c62,1.6,128.51,47.93,155.74,106.51,6.14,13.19,13.35,26.4,22.56,37.54,15.1,18.24,27.25,16.47,39.36-4.12,20.19-34.34,22.6-70.69,12-108.62C406,121.62,312.49,65.83,220.52,88c-94.18,22.68-153.68,114.48-133.78,208,4,18.91,7.86,40.46,33.94,42.87,36.73,3.4,55.49-5.35,66.84-33.34a145.56,145.56,0,0,0,10-40.36C200.07,238.21,200.53,211.12,201.94,182.41Z"/></g></g></svg>