<svg xmlns="http://www.w3.org/2000/svg" viewBox="0 0 738 241.49"><defs><style>.cls-1{fill:#4485c5;}</style></defs><title>logo_blue_wordmark</title><g id="Lager_2" data-name="Lager 2"><g id="Lager_1-2" data-name="Lager 1"><path class="cls-1" d="M324.86,33.3h12.49V45.52H324.86Zm0,21.85h12.49v51.66H324.86Z"/><path class="cls-1" d="M351.09,68.17c0-4.43,0-9.14-.1-13H363.1a71.71,71.71,0,0,1,.48,7.22c1.86-3.64,6.05-8.43,15.41-8.43,10.15,0,17.17,6.65,17.17,19.89v33H383.67V75.26c0-6.47-2.31-11-9.15-11-7.31,0-10.94,4.74-10.94,14.29v28.3H351.09Z"/><path class="cls-1" d="M416.31,55.15c5.61,18.72,10,34.18,11.24,40.48h.1c1.39-7.6,6.6-23.14,12.19-40.48h12.51l-18.5,51.66H420.56L402.88,55.15Z"/><path class="cls-1" d="M460.12,33.3h12.49V45.52H460.12Zm0,21.85h12.49v51.66H460.12Z"/><path class="cls-1" d="M480.91,55.15h8.29V40.74h12.49V55.15h10.55v9.59H501.69V91.83c0,4.29,1.21,6.17,5.61,6.17a22.36,22.36,0,0,0,3.68-.25v8.79c-2.63.91-6.24,1-9,1-9.39,0-12.8-5-12.8-13.86V64.74h-8.29Z"/><path class="cls-1" d="M562.32,94.16a103.76,103.76,0,0,0,.7,12.65H551.08a23.53,23.53,0,0,1-.76-5.62c-1.85,3.08-5.57,6.83-15,6.83-12.36,0-17.6-8.1-17.6-16.06,0-11.69,9.32-17.07,24.54-17.07h7.85V71.31c0-4-1.36-8.23-9-8.23-6.91,0-8.28,3.14-9,7H520.13c.74-8.49,6-16.19,21.41-16.12,13.43.08,20.78,5.39,20.78,17.5ZM550.13,82.73h-6.67c-9.19,0-13.16,2.71-13.16,8.46,0,4.29,2.76,7.69,8.31,7.69,10.22,0,11.52-7,11.52-14.69Z"/><path class="cls-1" d="M569.62,55.15h8.29V40.74H590.4V55.15H601v9.59H590.4V91.83c0,4.29,1.21,6.17,5.61,6.17a22.18,22.18,0,0,0,3.67-.25v8.79c-2.62.91-6.23,1-9,1-9.39,0-12.79-5-12.79-13.86V64.74h-8.29Z"/><path class="cls-1" d="M609.44,33.3h12.5V45.52h-12.5Zm0,21.85h12.5v51.66h-12.5Z"/><path class="cls-1" d="M682.43,80.88c0,15.38-9.07,27.14-25.25,27.14-15.61,0-24.82-11.44-24.82-26.9,0-15.71,9.34-27.18,25.47-27.18C672.74,53.94,682.43,64.68,682.43,80.88Zm-37.35.1c0,10.41,4.74,17.1,12.44,17.1s12.19-6.55,12.19-17c0-11.08-4.41-17.17-12.4-17.17C649.66,63.88,645.08,69.77,645.08,81Z"/><path class="cls-1" d="M692.93,68.17c0-4.43,0-9.14-.1-13h12.11a71.71,71.71,0,0,1,.48,7.22c1.86-3.64,6.05-8.43,15.41-8.43C731,53.94,738,60.59,738,73.83v33H725.51V75.26c0-6.47-2.31-11-9.15-11-7.31,0-10.94,4.74-10.94,14.29v28.3H692.93Z"/><path class="cls-1" d="M366.24,174.57a103.9,103.9,0,0,0,.7,12.65H355a23.62,23.62,0,0,1-.76-5.63c-1.85,3.09-5.57,6.83-15,6.83-12.36,0-17.6-8.1-17.6-16.06,0-11.69,9.32-17.07,24.54-17.07H354v-3.57c0-4-1.36-8.24-9-8.24-6.92,0-8.28,3.15-9,7H324.05c.74-8.48,6-16.18,21.41-16.11,13.43.07,20.78,5.39,20.78,17.5Zm-12.19-11.43h-6.67c-9.19,0-13.16,2.7-13.16,8.46,0,4.28,2.76,7.69,8.31,7.69,10.22,0,11.52-7,11.52-14.69Z"/><path class="cls-1" d="M381.21,113.71H393.7v12.22H381.21Zm0,21.85H393.7v51.66H381.21Z"/><path class="cls-1" d="M408.57,149.58c0-5.84,0-10.23-.1-14h12.25c.18,1.25.35,6,.35,9.56,2.42-6.27,8.15-10.65,16.85-10.77V146.4c-10.45-.07-16.85,3.64-16.85,17.43v23.39h-12.5Z"/><path class="cls-1" d="M457.93,135.56C463.18,157.47,466.1,170,467,176h.17c1-5.43,3.22-15.15,9.86-40.43h11.77c6.6,26.68,8.57,34.5,9.33,39.76h.11c1.12-5.39,2.87-13.14,9.58-39.76H520.3l-15.53,51.66H491.35c-4.51-19.34-7.8-32.06-8.94-38.45h-.1c-.87,6.2-4.27,19.25-9.25,38.45H459.49l-14.78-51.66Z"/><path class="cls-1" d="M569.37,174.57a103.9,103.9,0,0,0,.7,12.65H558.13a24.08,24.08,0,0,1-.77-5.63c-1.84,3.09-5.56,6.83-15,6.83-12.36,0-17.6-8.1-17.6-16.06,0-11.69,9.32-17.07,24.54-17.07h7.85v-3.57c0-4-1.36-8.24-9-8.24-6.92,0-8.28,3.15-9,7H527.18c.74-8.48,6-16.18,21.41-16.11,13.43.07,20.78,5.39,20.78,17.5Zm-12.19-11.43h-6.67c-9.19,0-13.16,2.7-13.16,8.46,0,4.28,2.76,7.69,8.31,7.69,10.22,0,11.52-7,11.52-14.69Z"/><path class="cls-1" d="M590.93,135.56c6.34,20.15,11,35.32,12,40.25h.1c1.3-5.43,4.55-17.08,11.48-40.25H627L609.21,189c-5.05,14.95-9.09,19.18-20.88,19.18a61.35,61.35,0,0,1-6.32-.37V197.57a36.35,36.35,0,0,0,3.89.23c5.69,0,8.28-2.18,10.59-8.87l-19-53.37Z"/><path class="cls-1" d="M644.37,171.94c1.22,4.63,4.85,7.28,10.75,7.28,6.06,0,8.33-2.36,8.33-6,0-3.83-2.26-5.45-10.49-7.46-16.14-4-19-8.93-19-16.13,0-7.5,5.37-15.27,20.17-15.27s20.24,8.27,20.76,15.34H663c-.55-2.39-2.24-6.35-9.38-6.35-5.57,0-7.31,2.56-7.31,5.24,0,3,1.78,4.47,10.53,6.53,16.71,3.91,19.38,9.59,19.38,17.2,0,8.72-6.73,16.11-21.51,16.11s-21.41-7.29-22.61-16.48Z"/><path class="cls-1" d="M241.49,120.66c.21,66.2-54.68,121-121,120.83S.12,187.29,0,121.32C-.12,54.61,54.05,0,120.41,0A121.08,121.08,0,0,1,241.49,120.66ZM93.42,84.39c28.7.73,59.45,22.17,72.05,49.27A80.39,80.39,0,0,0,175.91,151c7,8.44,12.6,7.62,18.21-1.91,9.33-15.88,10.45-32.7,5.56-50.25C187.81,56.27,144.56,30.46,102,40.7c-43.58,10.5-71.1,53-61.89,96.21,1.86,8.75,3.63,18.71,15.7,19.83,17,1.57,25.67-2.48,30.92-15.42a67.41,67.41,0,0,0,4.63-18.68C92.56,110.2,92.77,97.67,93.42,84.39Z"/><rect class="cls-1" x="279.06" width="5.02" height="241.49"/></g></g></svg>