<svg id="Lager_1" data-name="Lager 1" xmlns="http://www.w3.org/2000/svg" viewBox="0 0 1000 1000"><defs><style>.cls-1{fill:#00a398;}</style></defs><title>airlime_logo_b_gr</title><path class="cls-1" d="M446,665.83q-2.79-2.6-7.89-2.59H427.35v18.94h10.77q5.1,0,7.89-2.6a8.9,8.9,0,0,0,2.78-6.82A9,9,0,0,0,446,665.83Z"/><polygon class="cls-1" points="332.83 692.18 351.67 692.18 342.25 666.41 332.83 692.18"/><path class="cls-1" d="M254.06,220V780H745.94V220ZM492.11,400.93,595.53,297.52a3.47,3.47,0,0,1,5,.11,178.45,178.45,0,0,1,42,82.34,3.5,3.5,0,0,1-2.86,4.21L495.23,407.06a3.53,3.53,0,0,1-3.69-1.94l0-.05A3.54,3.54,0,0,1,492.11,400.93Zm153.48-1.8a180,180,0,0,1-14.44,91.29,3.49,3.49,0,0,1-4.77,1.67L496,425.67a3.55,3.55,0,0,1-1.85-3.74v-.06a3.53,3.53,0,0,1,2.92-3L641.56,396A3.52,3.52,0,0,1,645.59,399.13ZM486.44,437.08l0,0,0,0a3.54,3.54,0,0,1,4.11-.71l130.35,66.42a3.51,3.51,0,0,1,1.43,4.9A180.81,180.81,0,0,1,557,573a3.51,3.51,0,0,1-4.89-1.42L485.73,441.19A3.53,3.53,0,0,1,486.44,437.08Zm-15.17,7.7h.06a3.55,3.55,0,0,1,3.74,1.85L541.49,577a3.49,3.49,0,0,1-1.67,4.77,180,180,0,0,1-91.29,14.44,3.51,3.51,0,0,1-3.13-4L468.28,447.7A3.53,3.53,0,0,1,471.27,444.78ZM346.92,546.13,450.33,442.71a3.56,3.56,0,0,1,4.14-.6l0,0a3.53,3.53,0,0,1,1.94,3.69L433.58,590.31a3.5,3.5,0,0,1-4.21,2.86,178.45,178.45,0,0,1-82.34-42A3.47,3.47,0,0,1,346.92,546.13Zm14.85,173.75L356.1,704.3H328.4l-5.67,15.58h-14l26.16-68.18h15.38l26,68.18Zm36.64,0H384.94V651.7h13.47Zm49.23,0-13.37-26.26h-6.92v26.26H414V651.7h26.64a23.53,23.53,0,0,1,9,1.63,20.93,20.93,0,0,1,6.83,4.43,19.11,19.11,0,0,1,4.37,6.63,22,22,0,0,1,1.54,8.27A19.2,19.2,0,0,1,447.83,692l14.62,27.89ZM331.08,569a4.79,4.79,0,0,1,6.47-7.06c76.13,68.37,193.34,66,266.56-7.26s75.63-190.43,7.26-266.56a4.8,4.8,0,0,1,.14-6.61h0a4.77,4.77,0,0,1,6.92.14c71.82,79.89,69.31,202.94-7.55,279.8S411,640.85,331.08,569ZM517.74,719.88H474.08V651.7h13.27v55.48h30.39Zm23.66,0H527.94V651.7H541.4Zm91.64,0H620v-47.8l-19.62,47.8H589.28l-19.61-47.41v47.41H557V651.7h17.51L595,700.93l20-49.23H633Zm58.27-55.68H661.88v15.58h26.64V691.6H661.88v15.77h29.43v12.51h-42.7V651.7h42.7Z"/></svg>