<svg id="Lager_1" data-name="Lager 1" xmlns="http://www.w3.org/2000/svg" viewBox="0 0 1000 1000"><title>airlime_logo_v_bk</title><path d="M403.58,796.13q-5-4.64-14.08-4.64H370.27v33.83H389.5q9.11,0,14.08-4.63a15.9,15.9,0,0,0,5-12.2Q408.56,800.77,403.58,796.13Z"/><polygon points="201.48 843.18 235.13 843.18 218.3 797.16 201.48 843.18"/><path d="M0,0V1000H1000V0ZM485.91,323.1,670.58,138.43a6.22,6.22,0,0,1,9,.19,318.85,318.85,0,0,1,75,147,6.26,6.26,0,0,1-5.12,7.52L491.49,334a6.31,6.31,0,0,1-6.6-3.46l-.05-.09A6.31,6.31,0,0,1,485.91,323.1ZM760,319.87a321.44,321.44,0,0,1-25.78,163,6.21,6.21,0,0,1-8.51,3L492.9,367.26a6.31,6.31,0,0,1-3.31-6.67s0-.07,0-.11a6.34,6.34,0,0,1,5.21-5.34l258-40.85A6.26,6.26,0,0,1,760,319.87Zm-284.2,67.77,0,0,0,0a6.33,6.33,0,0,1,7.35-1.26L716,504.91a6.26,6.26,0,0,1,2.54,8.74A322.57,322.57,0,0,1,601.87,630.3a6.26,6.26,0,0,1-8.74-2.54L474.52,395A6.33,6.33,0,0,1,475.78,387.64ZM448.7,401.4l.1,0a6.32,6.32,0,0,1,6.68,3.31L574.09,637.47a6.22,6.22,0,0,1-3,8.51,321.32,321.32,0,0,1-163,25.78,6.26,6.26,0,0,1-5.58-7.19l40.86-258A6.3,6.3,0,0,1,448.7,401.4Zm-222.06,181L411.31,397.7a6.33,6.33,0,0,1,7.38-1.08l.09.05a6.32,6.32,0,0,1,3.47,6.6l-40.86,258a6.27,6.27,0,0,1-7.52,5.12,318.88,318.88,0,0,1-147-75A6.22,6.22,0,0,1,226.64,582.37Zm26.52,310.27L243,864.82H193.58l-10.13,27.82H158.38l46.7-121.75h27.48l46.36,121.75Zm65.42,0h-24V770.89h24Zm87.92,0-23.87-46.88H370.27v46.88H346.4V770.89H394A41.94,41.94,0,0,1,410,773.81a37.46,37.46,0,0,1,12.19,7.9A34.37,34.37,0,0,1,430,793.55a39.46,39.46,0,0,1,2.74,14.77q0,12.88-6.95,22a35.3,35.3,0,0,1-19,12.54l26.1,49.8ZM198.36,623.28a8.55,8.55,0,0,1,11.55-12.62c136,122.1,345.24,117.79,476-13s135.06-340,13-476a8.57,8.57,0,0,1,.24-11.81h0a8.54,8.54,0,0,1,12.37.25C839.74,252.81,835.25,472.53,698,609.78S341,751.53,198.36,623.28ZM531.68,892.64h-78V770.89h23.7V870h54.26Zm42.24,0h-24V770.89h24Zm163.65,0H714.21V807.29l-35,85.35H659.44l-35-84.66v84.66H601.74V770.89H633l36.58,87.92,35.71-87.92h32.29Zm104-99.43H789.08V821h47.57v21.12H789.08v28.16h52.54v22.33H765.38V770.89h76.24Z"/></svg>