<svg id="Lager_1" data-name="Lager 1" xmlns="http://www.w3.org/2000/svg" viewBox="0 0 1000 1000"><title>airlime_logo_bk</title><polygon points="276.62 510.87 308.01 510.87 292.32 467.95 276.62 510.87"/><path d="M465.13,467q-4.65-4.33-13.13-4.33H434.06v31.55H452q8.49,0,13.13-4.32a14.79,14.79,0,0,0,4.65-11.37Q469.78,471.3,465.13,467Z"/><path d="M0,0V1000H1000V0ZM180.39,483.2l34.41-34.41a1.16,1.16,0,0,1,1.68,0,59.53,59.53,0,0,1,14,27.4,1.16,1.16,0,0,1-1,1.4l-48.07,7.62a1.17,1.17,0,0,1-1.23-.65v0A1.18,1.18,0,0,1,180.39,483.2Zm51.07-.6a59.86,59.86,0,0,1-4.8,30.38,1.17,1.17,0,0,1-1.59.55l-43.38-22.1a1.19,1.19,0,0,1-.61-1.25h0a1.18,1.18,0,0,1,1-1l48.07-7.61A1.16,1.16,0,0,1,231.46,482.6Zm-53,12.62h0a1.17,1.17,0,0,1,1.37-.23l43.37,22.1a1.16,1.16,0,0,1,.47,1.63A60,60,0,0,1,202,540.44a1.16,1.16,0,0,1-1.63-.47l-22.1-43.38A1.19,1.19,0,0,1,178.5,495.22Zm-5,2.57h0a1.17,1.17,0,0,1,1.24.61l22.1,43.38a1.15,1.15,0,0,1-.55,1.58,60,60,0,0,1-30.38,4.81,1.16,1.16,0,0,1-1-1.34l7.61-48.07A1.18,1.18,0,0,1,173.46,497.79Zm-41.38,33.72,34.41-34.41a1.2,1.2,0,0,1,1.38-.2h0a1.17,1.17,0,0,1,.65,1.23l-7.61,48.07a1.17,1.17,0,0,1-1.41.95,59.33,59.33,0,0,1-27.39-14A1.15,1.15,0,0,1,132.08,531.51Zm-5.27,7.62a1.59,1.59,0,0,1,2.15-2.35,64.52,64.52,0,0,0,91.12-91.11,1.6,1.6,0,0,1,0-2.2h0a1.6,1.6,0,0,1,2.31,0,67.71,67.71,0,0,1-95.62,95.61Zm198,17.87-9.45-26H269.25l-9.45,26H236.42L280,443.44h25.63L348.86,557Zm61,0H363.43V443.44h22.42Zm82,0-22.26-43.73H434.06V557H411.8V443.44h44.36a39.16,39.16,0,0,1,15,2.73,34.86,34.86,0,0,1,11.37,7.36,32,32,0,0,1,7.29,11.05,37,37,0,0,1,2.56,13.78q0,12-6.49,20.5a32.86,32.86,0,0,1-17.7,11.69L492.52,557Zm116.76,0H511.9V443.44H534v92.42h50.61Zm39.4,0H601.59V443.44H624Zm152.64,0H754.87V477.4L722.19,557H703.77L671.1,478v79H650V443.44h29.15l34.11,82,33.32-82h30.11Zm97.06-92.74h-49v25.95h44.36v19.7H824.7v26.27h49V557H802.59V443.44h71.12Z"/></svg>