<svg id="Lager_1" data-name="Lager 1" xmlns="http://www.w3.org/2000/svg" viewBox="0 0 1000 1000"><defs><style>.cls-1{fill:#fff;}</style></defs><title>airlime_logo_v_bk_white</title><rect width="1000" height="1000"/><path class="cls-1" d="M243,864.82H193.58l-10.13,27.81H158.38l46.7-121.74h27.48l46.36,121.74H253.16Zm-41.55-21.64h33.65l-16.83-46Z"/><path class="cls-1" d="M294.54,892.63V770.89h24V892.63Z"/><path class="cls-1" d="M382.63,845.76H370.27v46.87H346.4V770.89H394A41.94,41.94,0,0,1,410,773.81a37.46,37.46,0,0,1,12.19,7.9A34.37,34.37,0,0,1,430,793.55a39.46,39.46,0,0,1,2.74,14.77q0,12.88-6.95,22a35.3,35.3,0,0,1-19,12.54l26.1,49.79H406.5Zm6.87-20.44q9.11,0,14.08-4.63a15.9,15.9,0,0,0,5-12.2q0-7.72-5-12.36t-14.08-4.64H370.27v33.83Z"/><path class="cls-1" d="M453.72,892.63V770.89h23.7V870h54.26v22.66Z"/><path class="cls-1" d="M549.88,892.63V770.89h24V892.63Z"/><path class="cls-1" d="M714.21,892.63V807.29l-35,85.34H659.44l-35-84.65v84.65H601.74V770.89H633l36.58,87.92,35.71-87.92h32.29V892.63Z"/><path class="cls-1" d="M765.38,892.63V770.89h76.24v22.32H789.08V821h47.57v21.12H789.08v28.16h52.54v22.32Z"/><path class="cls-1" d="M226.83,591.38a318.88,318.88,0,0,0,147,75,6.27,6.27,0,0,0,7.52-5.12l40.86-258a6.32,6.32,0,0,0-3.47-6.6l-.09-.05a6.33,6.33,0,0,0-7.38,1.08L226.64,582.37A6.22,6.22,0,0,0,226.83,591.38Z"/><path class="cls-1" d="M408.08,671.76a321.32,321.32,0,0,0,163-25.78,6.22,6.22,0,0,0,3-8.51L455.48,404.69a6.32,6.32,0,0,0-6.68-3.31l-.1,0a6.3,6.3,0,0,0-5.34,5.2l-40.86,258A6.26,6.26,0,0,0,408.08,671.76Z"/><path class="cls-1" d="M474.52,395,593.13,627.76a6.25,6.25,0,0,0,8.73,2.54A322.49,322.49,0,0,0,718.51,513.65a6.26,6.26,0,0,0-2.54-8.74L483.2,386.31a6.33,6.33,0,0,0-7.35,1.26l0,0,0,0A6.33,6.33,0,0,0,474.52,395Z"/><path class="cls-1" d="M754.59,285.65a318.85,318.85,0,0,0-75-147,6.22,6.22,0,0,0-9-.19L485.91,323.1a6.31,6.31,0,0,0-1.07,7.38l.05.09a6.31,6.31,0,0,0,6.6,3.46l258-40.86A6.26,6.26,0,0,0,754.59,285.65Z"/><path class="cls-1" d="M734.2,482.9a321.53,321.53,0,0,0,25.78-163,6.26,6.26,0,0,0-7.19-5.58l-258,40.85a6.34,6.34,0,0,0-5.21,5.34l0,.11a6.31,6.31,0,0,0,3.31,6.67L725.69,485.87A6.21,6.21,0,0,0,734.2,482.9Z"/><path class="cls-1" d="M699.12,109.89a8.57,8.57,0,0,0-.24,11.81c122.09,136,117.78,345.24-13,476s-340,135.07-476,13a8.57,8.57,0,0,0-11.81.25h0a8.55,8.55,0,0,0,.26,12.37C341,751.53,560.75,747,698,609.78s141.74-357,13.49-499.64a8.54,8.54,0,0,0-12.37-.25Z"/></svg>