<svg id="Lager_1" data-name="Lager 1" xmlns="http://www.w3.org/2000/svg" viewBox="0 0 1000 1000"><defs><style>.cls-1{fill:#00a398;}.cls-2{fill:#fff;}</style></defs><title>airlime_logo_gr_white</title><rect class="cls-1" width="1000" height="1000"/><path class="cls-2" d="M315.38,531.05H269.25l-9.45,26H236.42L280,443.44h25.63L348.86,557h-24Zm-38.76-20.18H308L292.32,468Z"/><path class="cls-2" d="M363.43,557V443.44h22.42V557Z"/><path class="cls-2" d="M445.59,513.27H434.06V557H411.8V443.44h44.36a39.16,39.16,0,0,1,15,2.73,34.86,34.86,0,0,1,11.37,7.36,32,32,0,0,1,7.29,11.05,37,37,0,0,1,2.56,13.78q0,12-6.49,20.5a32.86,32.86,0,0,1-17.7,11.69L492.52,557H467.85ZM452,494.21q8.49,0,13.13-4.32a14.79,14.79,0,0,0,4.65-11.37q0-7.22-4.65-11.53T452,462.66H434.06v31.55Z"/><path class="cls-2" d="M511.9,557V443.44H534v92.42h50.61V557Z"/><path class="cls-2" d="M601.59,557V443.44H624V557Z"/><path class="cls-2" d="M754.87,557V477.4L722.19,557H703.77L671.1,478v79H650V443.44h29.15l34.11,82,33.32-82h30.11V557Z"/><path class="cls-2" d="M802.6,557V443.44h71.11v20.82h-49v25.95h44.36v19.7H824.7v26.27h49V557Z"/><path class="cls-2" d="M132.12,533.19a59.33,59.33,0,0,0,27.39,14,1.17,1.17,0,0,0,1.41-.95l7.61-48.07a1.17,1.17,0,0,0-.65-1.23h0a1.18,1.18,0,0,0-1.38.2l-34.41,34.41A1.15,1.15,0,0,0,132.12,533.19Z"/><path class="cls-2" d="M165.89,548.17a60,60,0,0,0,30.38-4.81,1.15,1.15,0,0,0,.55-1.58l-22.1-43.38a1.17,1.17,0,0,0-1.24-.61h0a1.18,1.18,0,0,0-1,1l-7.61,48.07A1.16,1.16,0,0,0,165.89,548.17Z"/><path class="cls-2" d="M178.27,496.59,200.37,540a1.16,1.16,0,0,0,1.63.47,60,60,0,0,0,21.73-21.73,1.16,1.16,0,0,0-.47-1.63L179.89,495a1.17,1.17,0,0,0-1.37.23h0A1.19,1.19,0,0,0,178.27,496.59Z"/><path class="cls-2" d="M230.46,476.22a59.53,59.53,0,0,0-14-27.4,1.16,1.16,0,0,0-1.68,0L180.39,483.2a1.18,1.18,0,0,0-.2,1.37v0a1.17,1.17,0,0,0,1.23.65l48.07-7.62A1.16,1.16,0,0,0,230.46,476.22Z"/><path class="cls-2" d="M226.66,513a59.86,59.86,0,0,0,4.8-30.38,1.16,1.16,0,0,0-1.34-1l-48.07,7.61a1.18,1.18,0,0,0-1,1h0a1.19,1.19,0,0,0,.61,1.25l43.38,22.1A1.17,1.17,0,0,0,226.66,513Z"/><path class="cls-2" d="M220.12,443.47a1.6,1.6,0,0,0,0,2.2A64.52,64.52,0,0,1,129,536.78a1.6,1.6,0,0,0-2.2.05h0a1.59,1.59,0,0,0,0,2.3,67.71,67.71,0,0,0,95.62-95.61,1.6,1.6,0,0,0-2.31,0Z"/></svg>