<svg id="Lager_1" data-name="Lager 1" xmlns="http://www.w3.org/2000/svg" viewBox="0 0 1000 1000"><defs><style>.cls-1{fill:#00a398;}.cls-2{fill:#fff;}</style></defs><title>airlime_logo_b_gr_white</title><rect class="cls-1" x="254.06" y="220" width="491.89" height="560"/><path class="cls-2" d="M356.1,704.3H328.4l-5.67,15.58h-14l26.16-68.18h15.38l26,68.18H361.77Zm-23.27-12.12h18.84l-9.42-25.77Z"/><path class="cls-2" d="M384.94,719.88V651.7h13.47v68.18Z"/><path class="cls-2" d="M434.27,693.62h-6.92v26.26H414V651.7h26.64a23.53,23.53,0,0,1,9,1.63,20.93,20.93,0,0,1,6.83,4.43,19.11,19.11,0,0,1,4.37,6.63,22,22,0,0,1,1.54,8.27A19.2,19.2,0,0,1,447.83,692l14.62,27.89H447.64Zm3.85-11.44q5.1,0,7.89-2.6a8.9,8.9,0,0,0,2.78-6.82,9,9,0,0,0-2.78-6.93q-2.79-2.6-7.89-2.59H427.35v18.94Z"/><path class="cls-2" d="M474.08,719.88V651.7h13.27v55.48h30.39v12.7Z"/><path class="cls-2" d="M527.93,719.88V651.7H541.4v68.18Z"/><path class="cls-2" d="M620,719.88v-47.8l-19.62,47.8H589.28l-19.61-47.41v47.41H557V651.7h17.51L595,700.93l20-49.23H633v68.18Z"/><path class="cls-2" d="M648.61,719.88V651.7h42.7v12.5H661.88v15.58h26.64V691.6H661.88v15.77h29.43v12.51Z"/><path class="cls-2" d="M347,551.17a178.45,178.45,0,0,0,82.34,42,3.5,3.5,0,0,0,4.21-2.86l22.88-144.48a3.53,3.53,0,0,0-1.94-3.69l0,0a3.54,3.54,0,0,0-4.14.6L346.92,546.13A3.47,3.47,0,0,0,347,551.17Z"/><path class="cls-2" d="M448.53,596.19a180,180,0,0,0,91.29-14.44,3.49,3.49,0,0,0,1.67-4.77L475.07,446.62a3.55,3.55,0,0,0-3.74-1.85h-.06a3.53,3.53,0,0,0-3,2.92L445.4,592.16A3.51,3.51,0,0,0,448.53,596.19Z"/><path class="cls-2" d="M485.73,441.19l66.42,130.36A3.51,3.51,0,0,0,557,573a180.74,180.74,0,0,0,65.33-65.33,3.5,3.5,0,0,0-1.43-4.89L490.59,436.33a3.54,3.54,0,0,0-4.11.71l0,0,0,0A3.53,3.53,0,0,0,485.73,441.19Z"/><path class="cls-2" d="M642.57,380a178.45,178.45,0,0,0-42-82.34,3.47,3.47,0,0,0-5-.11L492.11,400.93a3.54,3.54,0,0,0-.6,4.14l0,.05a3.53,3.53,0,0,0,3.69,1.94l144.48-22.88A3.5,3.5,0,0,0,642.57,380Z"/><path class="cls-2" d="M631.15,490.42a180,180,0,0,0,14.44-91.29,3.52,3.52,0,0,0-4-3.13L497.1,418.88a3.53,3.53,0,0,0-2.92,3v.06a3.55,3.55,0,0,0,1.85,3.74l130.36,66.42A3.49,3.49,0,0,0,631.15,490.42Z"/><path class="cls-2" d="M611.51,281.54a4.8,4.8,0,0,0-.14,6.61c68.37,76.13,66,193.34-7.26,266.56S413.68,630.34,337.55,562a4.8,4.8,0,0,0-6.61.14h0a4.77,4.77,0,0,0,.14,6.92C411,640.85,534,638.34,610.88,561.48s79.37-199.91,7.55-279.8a4.77,4.77,0,0,0-6.92-.14Z"/></svg>