<svg id="Lager_1" data-name="Lager 1" xmlns="http://www.w3.org/2000/svg" viewBox="0 0 1000 1000"><defs><style>.cls-1{fill:#13b000;}.cls-2{fill:#fff;}</style></defs><title>sec_logo_v</title><rect class="cls-1" x="245.44" y="153.07" width="509.11" height="579.61"/><path class="cls-2" d="M351.06,654.33H322.39l-5.87,16.12H302l27.07-70.57H345l26.87,70.57H356.93ZM327,641.78h19.51l-9.75-26.67Z"/><path class="cls-2" d="M380.92,670.45V599.88h13.93v70.57Z"/><path class="cls-2" d="M432,643.28h-7.16v27.17H411V599.88h27.57a24.36,24.36,0,0,1,9.31,1.7,21.51,21.51,0,0,1,7.06,4.57,19.88,19.88,0,0,1,4.53,6.87,22.9,22.9,0,0,1,1.6,8.56,19.92,19.92,0,0,1-15,20l15.12,28.86H445.81Zm4-11.85q5.28,0,8.17-2.68a9.23,9.23,0,0,0,2.88-7.07,9.35,9.35,0,0,0-2.88-7.17q-2.89-2.68-8.17-2.68H424.81v19.6Z"/><path class="cls-2" d="M473.18,670.45V599.88h13.73v57.43h31.45v13.14Z"/><path class="cls-2" d="M528.91,670.45V599.88h13.94v70.57Z"/><path class="cls-2" d="M624.16,670.45V621l-20.3,49.47H592.41l-20.3-49.07v49.07H559V599.88h18.11l21.2,51,20.7-51H637.7v70.57Z"/><path class="cls-2" d="M653.82,670.45V599.88H698v12.94H667.55V629h27.57v12.24H667.55v16.32H698v12.94Z"/><path class="cls-2" d="M341.67,495.84a184.79,184.79,0,0,0,85.22,43.47,3.64,3.64,0,0,0,4.36-3l23.68-149.53a3.67,3.67,0,0,0-2-3.83l-.06,0a3.67,3.67,0,0,0-4.28.62l-107,107A3.6,3.6,0,0,0,341.67,495.84Z"/><path class="cls-2" d="M446.72,542.43a186.33,186.33,0,0,0,94.5-14.94,3.61,3.61,0,0,0,1.72-4.94L474.19,387.63a3.66,3.66,0,0,0-3.86-1.92h-.07a3.66,3.66,0,0,0-3.09,3L443.49,538.26A3.63,3.63,0,0,0,446.72,542.43Z"/><path class="cls-2" d="M485.23,382,554,516.92A3.63,3.63,0,0,0,559,518.4a187,187,0,0,0,67.61-67.61,3.63,3.63,0,0,0-1.47-5.07L490.26,377a3.66,3.66,0,0,0-4.26.73l0,0,0,0A3.67,3.67,0,0,0,485.23,382Z"/><path class="cls-2" d="M647.56,318.64a184.73,184.73,0,0,0-43.47-85.23,3.61,3.61,0,0,0-5.22-.11l-107,107a3.66,3.66,0,0,0-.62,4.28l0,.05a3.65,3.65,0,0,0,3.82,2L644.6,323A3.61,3.61,0,0,0,647.56,318.64Z"/><path class="cls-2" d="M635.74,433a186.19,186.19,0,0,0,14.94-94.49,3.63,3.63,0,0,0-4.16-3.24L497,358.91a3.67,3.67,0,0,0-3,3.1v.06a3.66,3.66,0,0,0,1.91,3.87l134.93,68.75A3.6,3.6,0,0,0,635.74,433Z"/><path class="cls-2" d="M615.41,216.76a5,5,0,0,0-.14,6.85c70.77,78.8,68.27,200.1-7.52,275.89S410.66,577.78,331.86,507a5,5,0,0,0-6.84.14h0a5,5,0,0,0,.14,7.17c82.69,74.33,210.05,71.73,289.6-7.82s82.16-206.91,7.82-289.6a5,5,0,0,0-7.17-.15Z"/><path class="cls-1" d="M292.28,791.26a17.77,17.77,0,0,0-1.22-3.77,11.75,11.75,0,0,0-2.66-3.77,15,15,0,0,0-4.41-2.87,16,16,0,0,0-6.48-1.17,14.86,14.86,0,0,0-5.26.9,13.44,13.44,0,0,0-4.09,2.39,11,11,0,0,0-2.65,3.45,9.27,9.27,0,0,0-1,4.1,9.17,9.17,0,0,0,2.18,6.16,11.55,11.55,0,0,0,6.64,3.5l10.83,2.24q10,2,15.2,7.86a20.07,20.07,0,0,1,5.2,13.81,21.69,21.69,0,0,1-6.9,15.83,25.38,25.38,0,0,1-8.34,5.1,31.64,31.64,0,0,1-11.42,1.91,34.07,34.07,0,0,1-12.49-2.07,27.47,27.47,0,0,1-8.82-5.42,24.25,24.25,0,0,1-5.47-7.49,26,26,0,0,1-2.33-8.18l11.89-3.4a19.68,19.68,0,0,0,1.49,5.68,14.57,14.57,0,0,0,3.35,4.79,16.84,16.84,0,0,0,5.26,3.34,18.46,18.46,0,0,0,7.12,1.28q6.8,0,10.25-3a9.41,9.41,0,0,0,3.45-7.43,9,9,0,0,0-2.6-6.43,14.23,14.23,0,0,0-7.49-3.77l-10.63-2.23a26.33,26.33,0,0,1-13.86-7.23q-5.26-5.42-5.26-13.92a20.32,20.32,0,0,1,2-9,23.31,23.31,0,0,1,5.52-7.34,26.76,26.76,0,0,1,8.13-4.94,27.13,27.13,0,0,1,9.94-1.8,31.67,31.67,0,0,1,11.36,1.8,25.28,25.28,0,0,1,7.81,4.62,21.1,21.1,0,0,1,4.84,6.22,26.23,26.23,0,0,1,2.33,6.59Z"/><path class="cls-1" d="M317.88,845.34V770h46.54v11.9H330.63v20h30.6v11.58h-30.6v20h33.79v11.9Z"/><path class="cls-1" d="M412.87,846.93a39.63,39.63,0,0,1-14.51-2.66,36,36,0,0,1-12.11-7.7,36.6,36.6,0,0,1-8.34-12.32,42.09,42.09,0,0,1-3.08-16.52A40.67,40.67,0,0,1,378,791.21a38,38,0,0,1,8.44-12.33,37,37,0,0,1,12.11-7.75,38.2,38.2,0,0,1,14.19-2.71,39.49,39.49,0,0,1,12.85,2,33.29,33.29,0,0,1,10,5.32,29.85,29.85,0,0,1,7,7.8,34.23,34.23,0,0,1,4,9.35l-12,4a25,25,0,0,0-2.61-6.43,19.24,19.24,0,0,0-4.46-5.26,20.73,20.73,0,0,0-6.37-3.5,26.82,26.82,0,0,0-17.59.42,23.5,23.5,0,0,0-8,5.1,25.17,25.17,0,0,0-5.63,8.56,31.28,31.28,0,0,0-2.12,12A30.44,30.44,0,0,0,390,819.36a24.53,24.53,0,0,0,5.58,8.45,23.66,23.66,0,0,0,8,5.15,25.45,25.45,0,0,0,9.3,1.75,24.31,24.31,0,0,0,8.49-1.38,21.63,21.63,0,0,0,6.49-3.72,22.41,22.41,0,0,0,4.62-5.31,25,25,0,0,0,2.81-6.16L447,822a35.15,35.15,0,0,1-4,9.3,30.66,30.66,0,0,1-7.06,8,35.94,35.94,0,0,1-10,5.58A37.32,37.32,0,0,1,412.87,846.93Z"/><path class="cls-1" d="M486.81,846.93a33,33,0,0,1-11.05-1.8,25.26,25.26,0,0,1-8.87-5.32,24.79,24.79,0,0,1-5.95-8.71,30.91,30.91,0,0,1-2.18-12V770h12.65v48.34q0,8,4.09,12.22t11.31,4.25q7.33,0,11.37-4.25t4-12.22V770H515V819.1a30.91,30.91,0,0,1-2.18,12,24.79,24.79,0,0,1-5.95,8.71,25.25,25.25,0,0,1-8.93,5.32A33.39,33.39,0,0,1,486.81,846.93Z"/><path class="cls-1" d="M554.38,815.59H545v29.75H532.18V770h28.9a26.54,26.54,0,0,1,9.82,1.75,21,21,0,0,1,7.44,4.89,22.19,22.19,0,0,1,4.68,7.28,24.09,24.09,0,0,1,1.64,8.92,21.13,21.13,0,0,1-17,21.47l17,31H570.21Zm4.36-11.26q6,0,9.46-3.13a11.82,11.82,0,0,0,0-16.79q-3.51-3.13-9.46-3.14H545v23.06Z"/><path class="cls-1" d="M598.26,845.34V770h13v75.33Z"/><path class="cls-1" d="M658.82,782v63.32H646.07V782H621.64V770h61.72v12Z"/><path class="cls-1" d="M687.93,770H703l18.06,31.55L739.25,770h14.34L727,813.46v31.88H714.28V813.46Z"/></svg>